<?xml version="1.0" standalone="no"?>
<!DOCTYPE svg PUBLIC "-//W3C//DTD SVG 20010904//EN"
 "http://www.w3.org/TR/2001/REC-SVG-20010904/DTD/svg10.dtd">
<svg version="1.0" xmlns="http://www.w3.org/2000/svg"
 width="835.000000pt" height="835.000000pt" viewBox="0 0 835.000000 835.000000"
 preserveAspectRatio="xMidYMid meet">
<metadata>
Created by potrace 1.14, written by Peter Selinger 2001-2017
</metadata>
<g transform="translate(0.000000,835.000000) scale(0.100000,-0.100000)"
fill="#000000" stroke="none">
<path d="M3908 8335 c-2 -1 -45 -6 -96 -9 -51 -4 -101 -9 -110 -11 -9 -1 -42
-6 -72 -10 -57 -7 -91 -12 -125 -19 -11 -2 -45 -7 -75 -12 -30 -4 -57 -8 -60
-9 -10 -2 -125 -28 -140 -30 -8 -2 -15 -4 -15 -5 0 -1 -7 -3 -15 -5 -43 -8
-156 -39 -240 -65 -52 -16 -98 -30 -103 -30 -4 0 -21 -7 -37 -15 -17 -9 -30
-13 -30 -11 0 3 -12 -1 -27 -9 -15 -8 -30 -12 -35 -9 -4 3 -8 0 -8 -5 0 -6 -3
-10 -7 -9 -9 3 -143 -48 -183 -69 -14 -7 -31 -13 -37 -13 -7 0 -13 -5 -13 -12
0 -6 -3 -9 -6 -5 -3 3 -23 -3 -42 -14 -20 -10 -41 -19 -45 -19 -5 0 -21 -8
-35 -18 -15 -10 -47 -27 -72 -37 -25 -11 -47 -22 -50 -25 -3 -3 -16 -11 -30
-17 -14 -7 -50 -27 -81 -45 -31 -18 -80 -46 -108 -62 -28 -16 -51 -34 -51 -39
0 -6 -3 -8 -6 -4 -9 9 -271 -174 -394 -275 -69 -57 -145 -124 -178 -155 -19
-18 -36 -33 -37 -33 -7 0 -212 -208 -270 -274 -33 -38 -70 -80 -83 -94 -13
-14 -35 -41 -50 -60 -15 -19 -40 -52 -57 -72 -16 -21 -37 -48 -45 -60 -8 -12
-22 -30 -30 -39 -9 -9 -22 -28 -29 -42 -7 -15 -24 -38 -37 -52 -13 -14 -24
-31 -24 -37 0 -5 -3 -10 -8 -10 -4 0 -13 -14 -20 -30 -8 -17 -20 -37 -27 -44
-14 -13 -34 -46 -71 -116 -11 -19 -22 -37 -25 -40 -10 -8 -114 -205 -110 -209
1 -2 -1 -7 -6 -10 -5 -3 -37 -69 -71 -146 -34 -77 -69 -153 -77 -168 -10 -19
-11 -26 -2 -21 6 4 4 -2 -6 -13 -9 -11 -17 -28 -17 -39 0 -11 -5 -25 -12 -32
-7 -7 -8 -12 -4 -12 5 0 4 -6 -1 -12 -6 -7 -16 -31 -22 -53 -7 -22 -16 -49
-21 -60 -16 -39 -71 -228 -85 -295 -2 -8 -4 -15 -5 -15 -2 0 -8 -29 -15 -65
-7 -38 -13 -65 -15 -65 -2 0 -10 -37 -14 -70 -3 -16 -5 -30 -6 -30 -2 0 -8
-35 -16 -90 -3 -27 -7 -52 -9 -55 -2 -3 -6 -34 -10 -70 -4 -36 -8 -72 -10 -80
-20 -103 -28 -693 -12 -850 5 -41 10 -96 12 -123 2 -26 6 -50 8 -55 3 -4 8
-32 12 -62 3 -30 8 -68 11 -85 3 -16 7 -41 9 -55 1 -14 4 -25 5 -25 1 0 3 -11
6 -25 15 -85 21 -115 24 -115 1 0 3 -9 5 -20 7 -41 16 -82 31 -135 23 -84 65
-223 74 -245 4 -11 18 -49 30 -85 12 -36 27 -78 34 -95 7 -16 19 -46 26 -65
12 -33 33 -80 83 -190 11 -25 21 -47 22 -50 5 -23 148 -284 158 -291 5 -3 9
-10 9 -15 1 -5 6 -18 13 -29 29 -48 125 -201 133 -210 4 -5 19 -26 32 -45 28
-41 31 -44 65 -86 14 -18 25 -36 25 -42 0 -6 3 -12 8 -14 7 -3 40 -41 82 -97
13 -18 33 -43 45 -55 11 -13 52 -58 90 -101 65 -73 285 -297 285 -290 0 2 21
-16 48 -40 75 -71 85 -79 127 -110 22 -17 51 -40 65 -53 14 -13 40 -32 58 -43
17 -11 32 -25 32 -30 0 -6 4 -7 10 -4 5 3 10 3 10 -2 0 -4 17 -19 38 -33 20
-14 43 -31 50 -37 7 -7 17 -13 22 -13 5 0 15 -6 22 -13 7 -7 38 -28 68 -47 30
-19 57 -37 60 -40 3 -3 16 -11 30 -19 14 -8 63 -37 110 -64 111 -64 383 -197
485 -237 44 -17 89 -35 100 -40 11 -5 56 -21 100 -36 44 -14 87 -28 95 -31 8
-4 17 -7 20 -8 3 -1 38 -11 79 -24 41 -12 83 -24 93 -26 11 -2 28 -7 38 -10
30 -9 64 -17 86 -19 11 -1 25 -5 31 -9 5 -4 24 -8 42 -9 17 -1 31 -6 31 -10 0
-4 3 -7 8 -6 5 1 99 -12 122 -17 34 -8 110 -20 190 -29 25 -3 56 -8 69 -11
136 -27 829 -27 963 1 13 2 46 7 73 10 28 3 61 7 75 10 14 3 39 7 55 9 64 9
92 14 143 25 30 7 61 13 70 15 9 2 17 4 17 5 0 2 19 6 65 15 19 3 60 13 90 22
60 18 65 20 96 27 95 21 489 170 598 225 21 11 44 18 50 14 6 -3 8 -2 3 2 -6
7 48 39 56 32 1 -1 17 8 35 21 17 13 32 20 32 15 0 -4 4 -3 8 2 4 6 25 20 47
32 111 59 216 123 310 187 33 22 63 40 68 38 4 -1 7 2 7 7 0 5 17 20 38 32 20
12 45 30 54 38 9 9 33 27 53 41 20 14 44 33 53 42 9 10 20 18 24 18 4 0 21 12
37 28 16 15 51 45 77 67 111 93 262 240 374 365 36 39 77 85 93 101 15 16 27
34 27 39 0 4 4 10 8 12 11 4 123 146 122 154 -1 3 5 11 13 17 7 7 31 37 53 67
21 30 42 56 46 58 5 2 8 8 8 13 0 6 18 37 40 69 22 32 40 64 40 69 0 6 5 11
10 11 6 0 10 7 10 15 0 8 5 15 10 15 6 0 10 6 10 14 0 8 6 21 13 28 7 7 28 42
46 78 19 36 38 67 43 68 4 2 8 8 8 13 0 6 32 74 70 153 38 78 70 145 70 149 0
3 14 36 30 72 17 37 32 74 34 83 1 9 7 26 11 37 32 79 43 114 38 119 -4 3 -1
6 5 6 7 0 11 3 10 8 -1 4 10 43 24 87 15 44 29 91 31 105 3 14 10 37 16 53 6
15 8 27 5 27 -2 0 0 8 5 18 5 9 12 33 15 53 3 20 8 42 10 50 3 8 8 25 10 39 3
14 8 36 11 50 4 14 8 36 9 50 2 14 8 50 14 80 12 60 14 69 38 250 20 151 26
643 10 825 -14 162 -15 176 -32 275 -9 52 -17 106 -18 120 -1 14 -5 30 -8 35
-6 11 -22 106 -20 118 1 4 -1 7 -6 7 -4 0 -8 10 -8 23 -2 19 -25 124 -38 167
-3 8 -14 47 -26 85 -12 39 -23 77 -25 85 -2 8 -4 16 -5 18 -2 1 -3 5 -5 10 -1
4 -4 14 -8 22 -3 8 -11 33 -18 55 -6 22 -16 46 -22 53 -5 6 -6 12 -3 12 4 0 1
10 -6 23 -6 12 -13 31 -15 42 -2 10 -9 23 -16 27 -6 4 -9 8 -5 8 11 0 -153
372 -172 390 -3 3 -20 34 -39 70 -19 36 -51 94 -73 129 -21 34 -38 67 -38 71
0 5 -3 10 -7 12 -9 3 -83 114 -83 123 0 3 -11 18 -25 33 -14 15 -25 32 -25 39
0 6 -3 13 -7 15 -5 2 -28 30 -53 63 -44 59 -155 199 -175 221 -5 6 -39 44 -75
85 -152 170 -350 355 -545 507 -36 29 -173 129 -187 137 -9 6 -37 25 -63 43
-25 17 -50 32 -56 32 -5 0 -9 3 -9 8 0 4 -20 18 -45 31 -25 13 -45 28 -45 33
0 5 -4 6 -10 3 -5 -3 -10 -1 -10 4 0 6 -3 10 -7 9 -5 -1 -39 16 -78 39 -88 51
-156 86 -173 89 -8 1 -22 10 -33 20 -10 9 -19 14 -19 10 0 -4 -15 3 -32 16
-18 13 -35 22 -38 22 -6 -2 -15 2 -152 59 -58 25 -109 43 -112 40 -3 -4 -6 -1
-6 6 0 7 -4 10 -9 6 -5 -3 -12 -1 -16 5 -3 5 -15 10 -26 10 -10 0 -19 5 -19
11 0 5 -4 7 -10 4 -5 -3 -16 -3 -22 2 -7 4 -15 8 -18 8 -4 1 -85 26 -275 85
-16 5 -43 12 -60 15 -47 9 -49 10 -62 18 -7 5 -13 6 -13 3 0 -2 -26 2 -58 9
-62 15 -81 19 -172 34 -140 25 -164 28 -250 36 -36 3 -99 9 -140 14 -68 8
-594 13 -602 6z"/>
</g>
</svg>
